<svg width="17" height="16" viewBox="0 0 17 16" fill="none" xmlns="http://www.w3.org/2000/svg">
<g clip-path="url(#clip0_799_160)">
<path d="M15.7688 7.8188L12.75 6.68755V3.29692C12.75 2.82817 12.4594 2.40942 12.0188 2.2438L8.89375 1.07192C8.64062 0.975049 8.35938 0.975049 8.10313 1.07192L4.97813 2.2438C4.5375 2.40942 4.24688 2.82817 4.24688 3.29692V6.68755L1.22812 7.8188C0.790625 7.98442 0.5 8.40317 0.5 8.87192V12.3125C0.5 12.7375 0.740625 13.1282 1.12187 13.3188L4.24688 14.8813C4.5625 15.0407 4.9375 15.0407 5.25313 14.8813L8.5 13.2563L11.7469 14.8813C12.0625 15.0407 12.4375 15.0407 12.7531 14.8813L15.8781 13.3188C16.2594 13.1282 16.5 12.7375 16.5 12.3125V8.87192C16.5 8.40317 16.2094 7.98442 15.7688 7.8188ZM11.6875 6.71255L9.03125 7.70942V5.57817L11.6875 4.42192V6.71255ZM5.3125 3.25317L8.5 2.05942L11.6875 3.25317V3.27192L8.5 4.56567L5.3125 3.27192V3.25317ZM7.9375 12.35L5.28125 13.6782V11.2063L7.9375 9.9938V12.35ZM7.9375 8.85005L4.75 10.1438L1.5625 8.85005V8.8313L4.75 7.63755L7.9375 8.8313V8.85005ZM15.4375 12.35L12.7812 13.6782V11.2063L15.4375 9.9938V12.35ZM15.4375 8.85005L12.25 10.1438L9.0625 8.85005V8.8313L12.25 7.63755L15.4375 8.8313V8.85005Z" fill="black"/>
</g>
<defs>
<clipPath id="clip0_799_160">
<rect width="16" height="16" fill="white" transform="translate(0.5)"/>
</clipPath>
</defs>
</svg>
