<svg width="16" height="16" viewBox="0 0 16 16" fill="none"
     xmlns="http://www.w3.org/2000/svg">
    <g clip-path="url(#clip0_722_1261)">
        <path d="M12.1666 5.06665L8.49992 2.94665C8.19325 2.76665 7.80659 2.76665 7.49992 2.94665L3.83325 5.06665C3.52659 5.24665 3.33325 5.57331 3.33325 5.93331V10.1666C3.33325 10.5266 3.52659 10.8533 3.83325 11.0333L7.49992 13.1533C7.80659 13.3333 8.19325 13.3333 8.49992 13.1533L12.1666 11.0333C12.4733 10.8533 12.6666 10.5266 12.6666 10.1666V5.93331C12.6666 5.57331 12.4733 5.24665 12.1666 5.06665ZM4.66659 9.97331V6.89331L7.33325 8.43998V11.5133L4.66659 9.97331ZM7.99992 7.28665L5.33325 5.73998L7.99992 4.19998L10.6666 5.73998L7.99992 7.28665ZM8.66659 11.5133V8.43998L11.3333 6.89331V9.97331L8.66659 11.5133ZM4.66659 1.33331H2.33325C1.77992 1.33331 1.33325 1.77998 1.33325 2.33331V4.66665H2.66659V2.66665H4.66659V1.33331ZM11.3333 1.33331H13.6666C14.2199 1.33331 14.6666 1.77998 14.6666 2.33331V4.66665H13.3333V2.66665H11.3333V1.33331ZM4.66659 14.6666H2.33325C1.77992 14.6666 1.33325 14.22 1.33325 13.6666V11.3333H2.66659V13.3333H4.66659V14.6666ZM11.3333 14.6666H13.6666C14.2199 14.6666 14.6666 14.22 14.6666 13.6666V11.3333H13.3333V13.3333H11.3333V14.6666Z"
              fill="#1F1F1F"/>
    </g>
    <defs>
        <clipPath id="clip0_722_1261">
            <rect width="16" height="16" fill="white"/>
        </clipPath>
    </defs>
</svg>
